<svg width="26" height="26" viewBox="0 0 26 26" fill="none" xmlns="http://www.w3.org/2000/svg">
<path d="M7.3125 5.6875C4.62962 5.6875 2.4375 7.87962 2.4375 10.5625C2.43849 11.3302 2.62077 12.0868 2.96951 12.7708C3.31825 13.4547 3.82359 14.0466 4.44437 14.4982C2.29937 15.5626 0.8125 17.7645 0.8125 20.3125H2.4375C2.4375 17.6101 4.61013 15.4375 7.3125 15.4375C10.0149 15.4375 12.1875 17.6101 12.1875 20.3125H13.8125C13.8125 17.6101 15.9851 15.4375 18.6875 15.4375C21.3899 15.4375 23.5625 17.6101 23.5625 20.3125H25.1875C25.1875 17.7645 23.7006 15.5626 21.5556 14.4982C22.1765 14.0467 22.6819 13.4548 23.0307 12.7708C23.3794 12.0869 23.5616 11.3302 23.5625 10.5625C23.5625 7.87962 21.3704 5.6875 18.6875 5.6875C16.0046 5.6875 13.8125 7.87962 13.8125 10.5625C13.8135 11.3302 13.9958 12.0868 14.3445 12.7708C14.6933 13.4547 15.1986 14.0466 15.8194 14.4982C14.6316 15.0809 13.6486 16.0102 13 17.1633C12.3514 16.0102 11.3684 15.0809 10.1806 14.4982C10.8015 14.0467 11.3069 13.4548 11.6557 12.7708C12.0044 12.0869 12.1866 11.3302 12.1875 10.5625C12.1875 7.87962 9.99538 5.6875 7.3125 5.6875ZM7.3125 7.3125C9.11625 7.3125 10.5625 8.75875 10.5625 10.5625C10.5625 12.3663 9.11625 13.8125 7.3125 13.8125C5.50875 13.8125 4.0625 12.3663 4.0625 10.5625C4.0625 8.75875 5.50875 7.3125 7.3125 7.3125ZM18.6875 7.3125C20.4913 7.3125 21.9375 8.75875 21.9375 10.5625C21.9375 12.3663 20.4913 13.8125 18.6875 13.8125C16.8837 13.8125 15.4375 12.3663 15.4375 10.5625C15.4375 8.75875 16.8837 7.3125 18.6875 7.3125Z" fill="white"/>
</svg>
